<?xml version="1.0" encoding="UTF-8" standalone="no"?>
<svg
   xmlns:dc="http://purl.org/dc/elements/1.1/"
   xmlns:cc="http://creativecommons.org/ns#"
   xmlns:rdf="http://www.w3.org/1999/02/22-rdf-syntax-ns#"
   xmlns:svg="http://www.w3.org/2000/svg"
   xmlns="http://www.w3.org/2000/svg"
   xmlns:sodipodi="http://sodipodi.sourceforge.net/DTD/sodipodi-0.dtd"
   xmlns:inkscape="http://www.inkscape.org/namespaces/inkscape"
   version="1.1"
   width="612"
   height="792"
   id="svg34"
   viewBox="0 0 612 792"
   sodipodi:docname="Logo.cdr">
  <metadata
     id="metadata40">
    <rdf:RDF>
      <cc:Work
         rdf:about="">
        <dc:format>image/svg+xml</dc:format>
        <dc:type
           rdf:resource="http://purl.org/dc/dcmitype/StillImage" />
      </cc:Work>
    </rdf:RDF>
  </metadata>
  <defs
     id="defs38" />
  <sodipodi:namedview
     pagecolor="#ffffff"
     bordercolor="#666666"
     borderopacity="1"
     objecttolerance="10"
     gridtolerance="10"
     guidetolerance="10"
     inkscape:pageopacity="0"
     inkscape:pageshadow="2"
     inkscape:window-width="640"
     inkscape:window-height="480"
     id="namedview36" />
  <path
     d="M 20.3332,262.0757 V 689.6069 H 588.1124 V 262.0757 Z"
     style="fill:#0f0d04;fill-rule:evenodd;stroke:#1b1918;stroke-width:0.5;stroke-linecap:butt;stroke-linejoin:miter;stroke-dasharray:none"
     id="path2" />
  <path
     d="m 298.4499,349.7117 -49.5003,117.75"
     style="fill:#ffffff;fill-rule:evenodd;stroke:#ffffff;stroke-width:1.0001;stroke-linecap:butt;stroke-linejoin:miter;stroke-dasharray:none"
     id="path4" />
  <path
     d="m 302.1999,349.7117 -49.5003,117.75"
     style="fill:#ffffff;fill-rule:evenodd;stroke:#ffffff;stroke-width:0.5;stroke-linecap:butt;stroke-linejoin:miter;stroke-dasharray:none"
     id="path6" />
  <path
     d="m 312.3249,349.7117 -49.5002,117.75"
     style="fill:#ffffff;fill-rule:evenodd;stroke:#ffffff;stroke-width:1.0001;stroke-linecap:butt;stroke-linejoin:miter;stroke-dasharray:none"
     id="path8" />
  <path
     d="m 327.325,349.7117 -49.5002,117.75"
     style="fill:#ffffff;fill-rule:evenodd;stroke:#ffffff;stroke-width:1.0001;stroke-linecap:butt;stroke-linejoin:miter;stroke-dasharray:none"
     id="path10" />
  <path
     d="m 289.8247,355.3364 h 41.25"
     style="fill:#ffffff;fill-rule:evenodd;stroke:#ffffff;stroke-width:1.0001;stroke-linecap:butt;stroke-linejoin:miter;stroke-dasharray:none"
     id="path12" />
  <path
     d="m 262.8247,420.2116 h 62.2502"
     style="fill:#ffffff;fill-rule:evenodd;stroke:#ffffff;stroke-width:1.0001;stroke-linecap:butt;stroke-linejoin:miter;stroke-dasharray:none"
     id="path14" />
  <path
     d="m 251.9495,442.7116 h 83.6252"
     style="fill:#ffffff;fill-rule:evenodd;stroke:#ffffff;stroke-width:1.0001;stroke-linecap:butt;stroke-linejoin:miter;stroke-dasharray:none"
     id="path16" />
  <path
     d="m 247.0748,457.7117 h 39.75"
     style="fill:#ffffff;fill-rule:evenodd;stroke:#ffffff;stroke-width:1.0001;stroke-linecap:butt;stroke-linejoin:miter;stroke-dasharray:none"
     id="path18" />
  <path
     d="m 245.5747,461.8369 h 39.75"
     style="fill:#ffffff;fill-rule:evenodd;stroke:#ffffff;stroke-width:1.0001;stroke-linecap:butt;stroke-linejoin:miter;stroke-dasharray:none"
     id="path20" />
  <path
     d="m 331.8248,443.0866 9.375,19.1251 h 29.2501 l -45.375,-107.2503 h -16.1252 v 35.6253 l 13.125,29.2498 h -12.7499 v 23.2501 z"
     style="fill:#ffffff;fill-rule:evenodd;stroke:#ffffff;stroke-width:0.5;stroke-linecap:butt;stroke-linejoin:miter;stroke-dasharray:none"
     id="path22" />
  <path
     d="m 235.0559,498.511 h 16.776 l -8.403,-15.9506 z m -11.2912,11.6436 17.0073,-31.1669 h 5.5751 l 17.3095,31.1669 h -5.716 l -3.9853,-7.6584 h -21.0832 l -3.975,7.6584 z m 73.0615,-27.1313 h -17.8628 v 10.8888 h 17.8628 c 1.2779,0 2.1535,-0.2415 2.6365,-0.7348 0.4831,-0.4929 0.7246,-1.3385 0.7246,-2.5359 v -4.3474 c 0,-1.1977 -0.2415,-2.043 -0.7246,-2.5362 -0.483,-0.4929 -1.3586,-0.7345 -2.6365,-0.7345 z m -23.0859,27.1313 v -31.1669 h 25.1187 c 2.3349,0 4.0254,0.4731 5.0519,1.4292 1.0366,0.9558 1.5497,2.4956 1.5497,4.6091 v 6.9639 c 0,2.1033 -0.5131,3.6329 -1.5497,4.589 -1.0265,0.9558 -2.717,1.4289 -5.0519,1.4289 h -19.8956 v 12.1468 z m 44.4305,0 v -31.1669 h 30.0198 v 4.1864 H 323.394 v 8.6749 h 15.1557 v 4.1261 H 323.394 v 9.9026 h 25.0279 v 4.2769 z m 38.1711,0 15.0953,-16.0716 -15.3269,-15.0953 h 7.4874 l 10.9089,11.7946 10.2648,-11.7946 h 6.4809 l -13.7067,14.6225 16.7156,16.5444 h -7.4871 l -12.3883,-13.2939 -11.4624,13.2939 z"
     style="fill:#e8a008;fill-rule:evenodd"
     id="path24" />
  <path
     d="m 269.9099,522.2684 h -3.4067 v 6.5098 h 3.4067 c 1.5131,0 2.5914,-0.2557 3.2309,-0.7639 0.6398,-0.5117 0.9578,-1.3524 0.9578,-2.522 0,-1.1441 -0.3217,-1.9664 -0.9686,-2.4673 -0.6471,-0.5043 -1.7217,-0.7566 -3.2201,-0.7566 z m 0.1936,-1.3816 c 0.8847,0 1.6302,0.0584 2.2334,0.1755 0.6029,0.1205 1.1001,0.2996 1.4913,0.5408 0.6358,0.4023 1.133,0.9468 1.4913,1.6339 0.3543,0.6908 0.5335,1.4474 0.5335,2.2774 0,1.5607 -0.4751,2.7303 -1.4256,3.505 -0.9465,0.775 -2.3904,1.1625 -4.3239,1.1625 h -5.355 v -9.2951 z m 9.9164,9.2951 v -9.2951 h 9.3609 v 1.3816 h -7.6065 v 2.3868 h 4.5836 v 1.3816 h -4.5836 v 2.7853 h 7.6906 v 1.3598 z m 20.9444,-7.9135 h -6.5209 v 2.4089 h 5.9653 c 0.8699,0 1.4655,0.1497 1.7835,0.4533 0.3181,0.3033 0.4754,0.8844 0.4754,1.7396 v 1.1149 c 0,0.8592 -0.1536,1.4366 -0.4643,1.7399 -0.3107,0.3033 -0.9102,0.4569 -1.7946,0.4569 h -5.6546 c -0.8847,0 -1.4879,-0.1536 -1.8057,-0.4569 -0.318,-0.3033 -0.4753,-0.8807 -0.4753,-1.7399 v -0.2557 l 1.6047,-0.3328 v 1.3816 h 7.0143 v -2.6133 h -5.9837 c -0.8807,0 -1.4765,-0.1499 -1.7909,-0.4532 -0.3144,-0.3033 -0.4714,-0.8847 -0.4714,-1.7399 v -0.8773 c 0,-0.8516 0.157,-1.4327 0.4714,-1.7436 0.3144,-0.3107 0.9102,-0.4641 1.7909,-0.4641 h 5.1721 c 0.8626,0 1.4585,0.15 1.7876,0.4496 0.3288,0.2996 0.4935,0.8297 0.4935,1.5863 v 0.2231 l -1.5973,0.3435 z m 7.4746,7.9135 h -1.7472 v -9.2732 h 1.7472 z m 13.1403,-7.9135 h -7.3505 v 6.5098 h 7.3505 v -2.5257 h -3.7942 v -1.2645 h 5.5489 v 2.9971 c 0,0.8518 -0.1574,1.4292 -0.4754,1.7362 -0.3181,0.307 -0.921,0.4606 -1.8057,0.4606 h -6.2977 c -0.8847,0 -1.4876,-0.1536 -1.8057,-0.4569 -0.318,-0.3033 -0.4754,-0.8807 -0.4754,-1.7399 v -4.8906 c 0,-0.8516 0.1611,-1.4327 0.4828,-1.7436 0.3214,-0.3107 0.921,-0.4641 1.7983,-0.4641 h 6.2977 c 0.8663,0 1.4621,0.1534 1.7875,0.4607 0.3289,0.307 0.4936,0.8478 0.4936,1.6191 v 0.2668 l -1.7547,0.2999 z m 7.1314,0.4825 c 0.044,0.2704 0.0731,0.5445 0.095,0.8223 0.0221,0.2815 0.0329,0.5593 0.0329,0.8371 v 5.7716 h -1.6155 v -9.2951 h 1.3377 l 6.8207,6.0713 c 0.201,0.1718 0.3912,0.3617 0.5737,0.5666 0.1829,0.2084 0.362,0.4459 0.5412,0.709 -0.0514,-0.2778 -0.0879,-0.563 -0.1134,-0.8479 -0.0255,-0.2851 -0.0366,-0.5814 -0.0366,-0.8884 v -5.6106 h 1.6155 v 9.2951 h -1.1988 l -6.9593,-6.1591 c -0.245,-0.2265 -0.4533,-0.4422 -0.6288,-0.6469 -0.1754,-0.2046 -0.3291,-0.413 -0.4643,-0.625 z m 21.7593,-0.4825 h -6.5208 v 2.4089 h 5.9652 c 0.87,0 1.4655,0.1497 1.7836,0.4533 0.318,0.3033 0.4754,0.8844 0.4754,1.7396 v 1.1149 c 0,0.8592 -0.1537,1.4366 -0.4644,1.7399 -0.3106,0.3033 -0.9102,0.4569 -1.7946,0.4569 h -5.6545 c -0.8847,0 -1.4879,-0.1536 -1.8057,-0.4569 -0.318,-0.3033 -0.4754,-0.8807 -0.4754,-1.7399 v -0.2557 l 1.6047,-0.3328 v 1.3816 h 7.0144 v -2.6133 h -5.9837 c -0.8807,0 -1.4766,-0.1499 -1.7909,-0.4532 -0.3144,-0.3033 -0.4714,-0.8847 -0.4714,-1.7399 v -0.8773 c 0,-0.8516 0.157,-1.4327 0.4714,-1.7436 0.3143,-0.3107 0.9102,-0.4641 1.7909,-0.4641 h 5.1721 c 0.8626,0 1.4584,0.15 1.7875,0.4496 0.3289,0.2996 0.4935,0.8297 0.4935,1.5863 v 0.2231 l -1.5973,0.3435 z"
     style="fill:#ffffff;fill-rule:evenodd"
     id="path26" />
  <path
     d="m 182.7428,525.884 h 75.7305"
     style="fill:#ffffff;fill-rule:evenodd;stroke:#ffffff;stroke-width:1.0001;stroke-linecap:butt;stroke-linejoin:miter;stroke-dasharray:none"
     id="path28" />
  <path
     d="m 357.5496,525.884 h 76.8199"
     style="fill:#ffffff;fill-rule:evenodd;stroke:#ffffff;stroke-width:1.0001;stroke-linecap:butt;stroke-linejoin:miter;stroke-dasharray:none"
     id="path30" />
  <path
     d="m 172.7872,542.5991 h 2.9489 l -1.4768,-4.2268 z m -1.9845,3.0852 2.9894,-8.2587 h 0.98 l 3.0427,8.2587 h -1.0049 l -0.7005,-2.0293 h -3.706 l -0.6987,2.0293 z m 11.6504,-5.7892 h -2.3953 v 2.1867 h 2.3953 c 0.1894,0 0.3166,-0.0482 0.3821,-0.1415 0.0655,-0.0932 0.0989,-0.2747 0.0989,-0.5465 v -0.8107 c 0,-0.2509 -0.0351,-0.4266 -0.1043,-0.5307 -0.0689,-0.104 -0.1944,-0.1573 -0.3767,-0.1573 z m -3.2442,5.7892 v -6.7813 h 3.6158 c 0.3359,0 0.5763,0.104 0.7231,0.3093 0.1472,0.2055 0.2214,0.5388 0.2214,1.0028 v 1.5146 c 0,0.4586 -0.0742,0.7892 -0.2214,0.9947 -0.1468,0.2027 -0.3872,0.3039 -0.7231,0.3039 h -0.5944 l 1.9845,2.656 h -1.1355 l -1.7938,-2.656 h -1.2277 v 2.656 z m 10.3855,-5.7733 h -3.1419 v 4.7494 h 3.1419 v -1.616 l 0.849,0.2427 v 0.7945 c 0,0.6214 -0.076,1.0426 -0.2299,1.2668 -0.1539,0.2239 -0.4456,0.3359 -0.8739,0.3359 h -2.6427 c -0.4281,0 -0.7183,-0.1094 -0.8689,-0.3254 -0.1502,-0.216 -0.2245,-0.6398 -0.2245,-1.2773 v -3.568 c 0,-0.6318 0.076,-1.0559 0.2282,-1.2773 0.1522,-0.2213 0.4405,-0.3333 0.8652,-0.3333 h 2.6427 c 0.4283,0 0.72,0.112 0.8739,0.3387 0.1539,0.2268 0.2299,0.6506 0.2299,1.2719 v 0.6401 l -0.849,0.2106 z m 2.6586,5.7733 v -6.7652 h 0.849 v 2.7173 h 3.5878 v -2.7173 h 0.849 v 6.7652 h -0.849 v -3.024 h -3.5878 v 3.024 z m 8.1888,0 h -0.8456 v -6.7652 h 0.8456 z m 4.2242,-5.7733 v 5.7733 h -0.8456 v -5.7733 h -2.1243 v -1.008 h 5.1049 v 1.008 z m 3.4089,5.7733 v -6.7813 h 4.5303 v 1.008 h -3.6813 v 1.7413 h 2.2184 v 1.008 h -2.2184 v 2.0319 h 3.7219 v 0.9921 z m 10.0477,-5.7733 h -3.1417 v 4.7494 h 3.1417 v -1.616 l 0.849,0.2427 v 0.7945 c 0,0.6214 -0.076,1.0426 -0.2299,1.2668 -0.154,0.2239 -0.4456,0.3359 -0.874,0.3359 h -2.6427 c -0.428,0 -0.7183,-0.1094 -0.8685,-0.3254 -0.1503,-0.216 -0.2248,-0.6398 -0.2248,-1.2773 v -3.568 c 0,-0.6318 0.076,-1.0559 0.2282,-1.2773 0.1522,-0.2213 0.4405,-0.3333 0.8651,-0.3333 h 2.6427 c 0.4284,0 0.72,0.112 0.874,0.3387 0.1539,0.2268 0.2299,0.6506 0.2299,1.2719 v 0.6401 l -0.849,0.2106 z m 4.8203,0 v 5.7733 h -0.8456 v -5.7733 h -2.1243 v -1.008 h 5.105 v 1.008 z m 4.2579,-1.008 v 5.7574 h 3.2868 v -5.7574 h 0.8597 v 5.1786 c 0,0.6267 -0.0759,1.048 -0.2299,1.2694 -0.1539,0.2213 -0.4458,0.3333 -0.8739,0.3333 h -2.7878 c -0.4281,0 -0.72,-0.112 -0.874,-0.3359 -0.1539,-0.2242 -0.2299,-0.6454 -0.2299,-1.2668 v -5.1786 z m 9.4745,0.9921 h -2.3952 v 2.1867 h 2.3952 c 0.1894,0 0.3167,-0.0482 0.3821,-0.1415 0.0655,-0.0932 0.0993,-0.2747 0.0993,-0.5465 v -0.8107 c 0,-0.2509 -0.0355,-0.4266 -0.1044,-0.5307 -0.0691,-0.104 -0.1947,-0.1573 -0.377,-0.1573 z m -3.2442,5.7892 v -6.7813 h 3.6159 c 0.3361,0 0.5765,0.104 0.7234,0.3093 0.1468,0.2055 0.2211,0.5388 0.2211,1.0028 v 1.5146 c 0,0.4586 -0.0743,0.7892 -0.2211,0.9947 -0.1469,0.2027 -0.3873,0.3039 -0.7234,0.3039 h -0.5945 l 1.9849,2.656 h -1.1359 l -1.7935,-2.656 h -1.2279 v 2.656 z m 6.5046,0 v -6.7813 h 4.5304 v 1.008 h -3.6814 v 1.7413 h 2.2184 v 1.008 h -2.2184 v 2.0319 h 3.7219 v 0.9921 z m 11.3426,-1.7572 c 0.1485,0 0.2404,0.0267 0.2721,0.0825 0.0338,0.0533 0.0499,0.1707 0.0499,0.3467 v 0.9147 c 0,0.1761 -0.0142,0.2906 -0.0442,0.3388 -0.0284,0.0504 -0.1222,0.0745 -0.2778,0.0745 h -0.6369 c -0.0831,0 -0.1398,-0.0241 -0.1681,-0.0745 -0.0301,-0.0482 -0.0443,-0.1627 -0.0443,-0.3388 v -0.9147 c 0,-0.176 0.0162,-0.2934 0.0496,-0.3467 0.0318,-0.0558 0.1239,-0.0825 0.2725,-0.0825 z m 10.6138,-4.0161 h -3.142 v 4.7494 h 3.142 v -1.616 l 0.8489,0.2427 v 0.7945 c 0,0.6214 -0.0759,1.0426 -0.2299,1.2668 -0.1539,0.2239 -0.4456,0.3359 -0.8739,0.3359 h -2.643 c -0.4277,0 -0.718,-0.1094 -0.8685,-0.3254 -0.1503,-0.216 -0.2245,-0.6398 -0.2245,-1.2773 v -3.568 c 0,-0.6318 0.0759,-1.0559 0.2282,-1.2773 0.1522,-0.2213 0.4405,-0.3333 0.8648,-0.3333 h 2.643 c 0.4283,0 0.72,0.112 0.8739,0.3387 0.154,0.2268 0.2299,0.6506 0.2299,1.2719 v 0.6401 l -0.8489,0.2106 z m 3.3981,4.7494 h 3.7591 v -4.7494 h -3.7591 z m -0.8492,-4.1468 c 0,-0.6213 0.0779,-1.0451 0.2336,-1.2719 0.1556,-0.2267 0.4458,-0.3387 0.8702,-0.3387 h 3.2496 c 0.4247,0 0.7149,0.112 0.8705,0.3387 0.1554,0.2268 0.2333,0.6506 0.2333,1.2719 v 3.568 c 0,0.6214 -0.0759,1.0426 -0.2299,1.2668 -0.1539,0.2239 -0.4456,0.3359 -0.8739,0.3359 h -3.2496 c -0.4317,0 -0.7234,-0.112 -0.8756,-0.3333 -0.1523,-0.2214 -0.2282,-0.6427 -0.2282,-1.2694 z m 8.1533,-0.2505 c 0.0212,0.1972 0.0351,0.3974 0.0459,0.6 0.0105,0.2053 0.0159,0.408 0.0159,0.6106 v 4.2106 h -0.7818 v -6.7813 h 0.6474 l 3.3007,4.4294 c 0.0972,0.1253 0.1893,0.2639 0.2778,0.4133 0.0884,0.1519 0.1751,0.3254 0.2619,0.5173 -0.0247,-0.2027 -0.0425,-0.4107 -0.055,-0.6188 -0.0122,-0.2078 -0.0176,-0.4238 -0.0176,-0.648 v -4.0932 h 0.7818 v 6.7813 h -0.5802 l -3.3682,-4.4932 c -0.1185,-0.1655 -0.2191,-0.3228 -0.3041,-0.472 -0.0848,-0.1493 -0.1591,-0.3013 -0.2245,-0.456 z m 10.5304,-0.3521 h -3.1558 v 1.7575 h 2.8871 c 0.4209,0 0.7092,0.1091 0.8631,0.3305 0.1539,0.2214 0.2302,0.6454 0.2302,1.2693 v 0.8133 c 0,0.6267 -0.0743,1.048 -0.2248,1.2694 -0.1505,0.2213 -0.4405,0.3333 -0.8685,0.3333 h -2.7366 c -0.4283,0 -0.72,-0.112 -0.8739,-0.3333 -0.1539,-0.2214 -0.2299,-0.6427 -0.2299,-1.2694 v -0.1865 l 0.7767,-0.2427 v 1.008 h 3.3945 v -1.9068 h -2.8959 c -0.4263,0 -0.7146,-0.1092 -0.8668,-0.3305 -0.152,-0.2214 -0.2282,-0.6455 -0.2282,-1.2694 v -0.6401 c 0,-0.6213 0.0762,-1.0451 0.2282,-1.2719 0.1522,-0.2267 0.4405,-0.3387 0.8668,-0.3387 h 2.5033 c 0.4172,0 0.7055,0.1094 0.8648,0.328 0.1593,0.2188 0.239,0.6054 0.239,1.1573 v 0.1628 l -0.7733,0.2505 z m 3.6422,-1.008 v 5.7574 h 3.2868 v -5.7574 h 0.8597 v 5.1786 c 0,0.6267 -0.0759,1.048 -0.2298,1.2694 -0.154,0.2213 -0.4456,0.3333 -0.874,0.3333 h -2.7878 c -0.4281,0 -0.72,-0.112 -0.874,-0.3359 -0.1539,-0.2242 -0.2298,-0.6454 -0.2298,-1.2668 v -5.1786 z m 6.2303,6.7813 v -6.7813 h 0.8493 v 5.7574 h 3.4988 v 1.0239 z m 7.069,-5.7733 v 5.7733 h -0.8455 v -5.7733 h -2.1246 v -1.008 h 5.1052 v 1.008 z m 2.2941,5.7733 2.6025,-6.7813 h 0.7764 l 2.664,6.7813 h -0.9215 l -0.5874,-1.5865 h -3.1079 l -0.5768,1.5865 z m 1.7833,-2.5625 h 2.3882 l -1.196,-3.2267 z m 6.3275,-2.8587 c 0.0212,0.1972 0.0354,0.3974 0.0459,0.6 0.0108,0.2053 0.0162,0.408 0.0162,0.6106 v 4.2106 h -0.7821 v -6.7813 h 0.6474 l 3.301,4.4294 c 0.0972,0.1253 0.1893,0.2639 0.2778,0.4133 0.0884,0.1519 0.1749,0.3254 0.2616,0.5173 -0.0247,-0.2027 -0.0422,-0.4107 -0.0547,-0.6188 -0.0125,-0.2078 -0.0176,-0.4238 -0.0176,-0.648 v -4.0932 h 0.7818 v 6.7813 h -0.5802 L 311,541.1911 c -0.1185,-0.1655 -0.2194,-0.3228 -0.3044,-0.472 -0.0848,-0.1493 -0.159,-0.3013 -0.2245,-0.456 z m 10.4423,-0.3521 h -3.1417 v 4.7494 h 3.1417 v -1.616 l 0.8489,0.2427 v 0.7945 c 0,0.6214 -0.0759,1.0426 -0.2299,1.2668 -0.1539,0.2239 -0.4456,0.3359 -0.8739,0.3359 h -2.6427 c -0.4281,0 -0.7183,-0.1094 -0.8686,-0.3254 -0.1502,-0.216 -0.2245,-0.6398 -0.2245,-1.2773 v -3.568 c 0,-0.6318 0.076,-1.0559 0.2279,-1.2773 0.1523,-0.2213 0.4408,-0.3333 0.8652,-0.3333 h 2.6427 c 0.4283,0 0.72,0.112 0.8739,0.3387 0.154,0.2268 0.2299,0.6506 0.2299,1.2719 v 0.6401 l -0.8489,0.2106 z m 4.187,5.7733 v -2.9599 l -2.3474,-3.8214 h 1.0316 l 1.7934,2.9387 1.7108,-2.9387 h 0.9941 l -2.3366,3.8214 v 2.9599 z m 9.6338,-1.7572 c 0.1486,0 0.2404,0.0267 0.2724,0.0825 0.0335,0.0533 0.0497,0.1707 0.0497,0.3467 v 0.9147 c 0,0.1761 -0.0142,0.2906 -0.0443,0.3388 -0.0283,0.0504 -0.1221,0.0745 -0.2778,0.0745 h -0.6369 c -0.0831,0 -0.1398,-0.0241 -0.1681,-0.0745 -0.0301,-0.0482 -0.0442,-0.1627 -0.0442,-0.3388 v -0.9147 c 0,-0.176 0.0161,-0.2934 0.0496,-0.3467 0.0317,-0.0558 0.1239,-0.0825 0.2724,-0.0825 z m 8.8943,-4.0161 v 5.7733 h -0.8456 v -5.7733 h -2.1245 v -1.008 h 5.1052 v 1.008 z m 4.2579,-1.008 v 5.7574 h 3.2868 v -5.7574 h 0.8597 v 5.1786 c 0,0.6267 -0.0759,1.048 -0.2301,1.2694 -0.1537,0.2213 -0.4456,0.3333 -0.8737,0.3333 h -2.7878 c -0.4281,0 -0.72,-0.112 -0.874,-0.3359 -0.1539,-0.2242 -0.2299,-0.6454 -0.2299,-1.2668 v -5.1786 z m 9.4745,0.9921 h -2.3952 v 2.1867 h 2.3952 c 0.1894,0 0.3167,-0.0482 0.3822,-0.1415 0.0654,-0.0932 0.0992,-0.2747 0.0992,-0.5465 v -0.8107 c 0,-0.2509 -0.0355,-0.4266 -0.1046,-0.5307 -0.0689,-0.104 -0.1945,-0.1573 -0.3768,-0.1573 z m -3.2442,5.7892 v -6.7813 h 3.6159 c 0.3359,0 0.5765,0.104 0.7234,0.3093 0.1468,0.2055 0.2211,0.5388 0.2211,1.0028 v 1.5146 c 0,0.4586 -0.0743,0.7892 -0.2211,0.9947 -0.1469,0.2027 -0.3875,0.3039 -0.7234,0.3039 h -0.5945 l 1.9849,2.656 h -1.1359 l -1.7937,-2.656 h -1.2277 v 2.656 z m 7.2244,-5.4212 c 0.0212,0.1972 0.0354,0.3974 0.0459,0.6 0.0108,0.2053 0.0161,0.408 0.0161,0.6106 v 4.2106 h -0.782 v -6.7813 h 0.6474 l 3.3009,4.4294 c 0.0973,0.1253 0.1894,0.2639 0.2778,0.4133 0.0885,0.1519 0.1749,0.3254 0.2617,0.5173 -0.0247,-0.2027 -0.0423,-0.4107 -0.0547,-0.6188 -0.0125,-0.2078 -0.0176,-0.4238 -0.0176,-0.648 v -4.0932 h 0.7818 v 6.7813 h -0.5803 l -3.3681,-4.4932 c -0.1185,-0.1655 -0.2194,-0.3228 -0.3041,-0.472 -0.0851,-0.1493 -0.1593,-0.3013 -0.2248,-0.456 z m 6.5613,5.4212 v -6.7813 h 0.849 v 2.9066 l 2.8392,-2.9066 h 1.1815 l -3.322,3.2746 3.6902,3.5067 h -1.3887 l -3.0002,-3.0399 v 3.0399 z m 6.4106,0 v -6.7813 h 4.5303 v 1.008 h -3.6813 v 1.7413 h 2.2183 v 1.008 h -2.2183 v 2.0319 h 3.7218 v 0.9921 z m 7.6949,0 v -2.9599 l -2.3474,-3.8214 h 1.0313 l 1.7937,2.9387 1.7108,-2.9387 h 0.9941 l -2.3369,3.8214 v 2.9599 z m 13.4813,-7.1334 h -3.8775 v 2.304 h 3.4529 c 0.4864,0 0.8192,0.1361 0.9995,0.4054 0.1785,0.2721 0.2687,0.784 0.2687,1.5415 v 0.9277 c 0,0.7628 -0.0882,1.2776 -0.2636,1.5495 -0.1766,0.2693 -0.5111,0.4053 -1.0046,0.4053 h -3.1984 c -0.4986,0 -0.8365,-0.136 -1.017,-0.4107 -0.1789,-0.2719 -0.269,-0.7866 -0.269,-1.5441 v -0.2264 l 0.8492,-0.296 v 1.3278 h 4.0791 v -2.4852 h -3.4404 c -0.4972,0 -0.8351,-0.136 -1.012,-0.4107 -0.1752,-0.2719 -0.2636,-0.7866 -0.2636,-1.5412 v -0.72 c 0,-0.7549 0.0884,-1.2694 0.2636,-1.5415 0.1769,-0.2747 0.5148,-0.4107 1.012,-0.4107 h 2.9185 c 0.4864,0 0.8226,0.1335 1.0066,0.4028 0.1859,0.2667 0.2778,0.7387 0.2778,1.4105 v 0.1709 l -0.7818,0.3359 z m 3.9728,6.1095 h 3.7593 v -4.7494 h -3.7593 z m -0.849,-4.1468 c 0,-0.6213 0.0779,-1.0451 0.2336,-1.2719 0.1556,-0.2267 0.4456,-0.3387 0.8702,-0.3387 h 3.2496 c 0.4247,0 0.7146,0.112 0.8705,0.3387 0.1554,0.2268 0.2333,0.6506 0.2333,1.2719 v 3.568 c 0,0.6214 -0.0759,1.0426 -0.2299,1.2668 -0.1539,0.2239 -0.4458,0.3359 -0.8739,0.3359 h -3.2496 c -0.4317,0 -0.7234,-0.112 -0.8756,-0.3333 -0.1523,-0.2214 -0.2282,-0.6427 -0.2282,-1.2694 z m 7.4333,5.1707 v -6.7813 h 0.8489 v 5.7574 h 3.4991 v 1.0239 z m 6.529,-6.7813 v 5.7574 h 3.2868 v -5.7574 h 0.8597 v 5.1786 c 0,0.6267 -0.0759,1.048 -0.2301,1.2694 -0.1537,0.2213 -0.4457,0.3333 -0.8737,0.3333 h -2.7879 c -0.428,0 -0.72,-0.112 -0.8739,-0.3359 -0.1539,-0.2242 -0.2299,-0.6454 -0.2299,-1.2668 v -5.1786 z m 8.392,1.008 v 5.7733 h -0.8456 v -5.7733 h -2.1246 v -1.008 h 5.1052 v 1.008 z m 4.2332,5.7733 h -0.8455 v -6.7652 h 0.8455 z m 2.8021,-1.0239 h 3.759 v -4.7494 h -3.759 z m -0.849,-4.1468 c 0,-0.6213 0.0777,-1.0451 0.2333,-1.2719 0.1556,-0.2267 0.4459,-0.3387 0.8705,-0.3387 h 3.2494 c 0.4246,0 0.7149,0.112 0.8705,0.3387 0.1553,0.2268 0.2333,0.6506 0.2333,1.2719 v 3.568 c 0,0.6214 -0.076,1.0426 -0.2299,1.2668 -0.1539,0.2239 -0.4456,0.3359 -0.8739,0.3359 h -3.2494 c -0.432,0 -0.7237,-0.112 -0.8759,-0.3333 -0.1519,-0.2214 -0.2279,-0.6427 -0.2279,-1.2694 z m 8.153,-0.2505 c 0.0213,0.1972 0.0352,0.3974 0.0459,0.6 0.0105,0.2053 0.0159,0.408 0.0159,0.6106 v 4.2106 h -0.7818 v -6.7813 h 0.6474 l 3.3007,4.4294 c 0.0972,0.1253 0.1894,0.2639 0.2778,0.4133 0.0884,0.1519 0.1752,0.3254 0.2619,0.5173 -0.0246,-0.2027 -0.0425,-0.4107 -0.0547,-0.6188 -0.0125,-0.2078 -0.0178,-0.4238 -0.0178,-0.648 v -4.0932 h 0.7818 v 6.7813 h -0.5803 l -3.3681,-4.4932 c -0.1185,-0.1655 -0.2191,-0.3228 -0.3042,-0.472 -0.0847,-0.1493 -0.159,-0.3013 -0.2245,-0.456 z m 10.5307,-0.3521 h -3.1561 v 1.7575 h 2.8871 c 0.421,0 0.7092,0.1091 0.8632,0.3305 0.1539,0.2214 0.2301,0.6454 0.2301,1.2693 v 0.8133 c 0,0.6267 -0.0742,1.048 -0.2247,1.2694 -0.1506,0.2213 -0.4406,0.3333 -0.8686,0.3333 h -2.7366 c -0.4283,0 -0.72,-0.112 -0.8739,-0.3333 -0.1539,-0.2214 -0.2299,-0.6427 -0.2299,-1.2694 v -0.1865 l 0.7767,-0.2427 v 1.008 h 3.3945 v -1.9068 h -2.8959 c -0.4263,0 -0.7146,-0.1092 -0.8665,-0.3305 -0.1522,-0.2214 -0.2285,-0.6455 -0.2285,-1.2694 v -0.6401 c 0,-0.6213 0.0763,-1.0451 0.2285,-1.2719 0.1519,-0.2267 0.4402,-0.3387 0.8665,-0.3387 h 2.5033 c 0.4173,0 0.7056,0.1094 0.8649,0.328 0.1593,0.2188 0.2389,0.6054 0.2389,1.1573 v 0.1628 l -0.773,0.2505 z"
     style="fill:#ffffff;fill-rule:evenodd"
     id="path32" />
</svg>
